<mxfile host="Electron" modified="2023-09-09T18:54:35.935Z" agent="Mozilla/5.0 (Windows NT 10.0; Win64; x64) AppleWebKit/537.36 (KHTML, like Gecko) draw.io/21.6.8 Chrome/114.0.5735.289 Electron/25.5.0 Safari/537.36" etag="7-zVWDPA2FsUjAF2KFxD" version="21.6.8" type="device">
  <diagram id="prtHgNgQTEPvFCAcTncT" name="Page-1">
    <mxGraphModel dx="352" dy="213" grid="1" gridSize="5" guides="1" tooltips="1" connect="1" arrows="1" fold="1" page="1" pageScale="1" pageWidth="1600" pageHeight="900" background="none" math="0" shadow="0">
      <root>
        <mxCell id="0" />
        <mxCell id="1" parent="0" />
        <mxCell id="bg21X9tkaUSZAUKivtD--1" value="Gerencia General" style="rounded=0;whiteSpace=wrap;html=1;fontSize=5;" parent="1" vertex="1">
          <mxGeometry x="380" y="45" width="40" height="20" as="geometry" />
        </mxCell>
        <mxCell id="bg21X9tkaUSZAUKivtD--8" value="Control" style="rounded=0;whiteSpace=wrap;html=1;fontSize=5;" parent="1" vertex="1">
          <mxGeometry x="555" y="115" width="40" height="25" as="geometry" />
        </mxCell>
        <mxCell id="bg21X9tkaUSZAUKivtD--9" value="Control de calidad" style="rounded=0;whiteSpace=wrap;html=1;fontSize=5;" parent="1" vertex="1">
          <mxGeometry x="270" y="170" width="40" height="25" as="geometry" />
        </mxCell>
        <mxCell id="bg21X9tkaUSZAUKivtD--10" value="Proveedor (Fibra y Algodón)" style="rounded=0;whiteSpace=wrap;html=1;fontSize=5;" parent="1" vertex="1">
          <mxGeometry x="270" y="140" width="40" height="25" as="geometry" />
        </mxCell>
        <mxCell id="bg21X9tkaUSZAUKivtD--16" value="Mantenimiento de planta de equipos" style="rounded=0;whiteSpace=wrap;html=1;fontSize=5;" parent="1" vertex="1">
          <mxGeometry x="270" y="110" width="40" height="25" as="geometry" />
        </mxCell>
        <mxCell id="bg21X9tkaUSZAUKivtD--18" value="" style="endArrow=none;html=1;rounded=0;" parent="1" edge="1">
          <mxGeometry width="50" height="50" relative="1" as="geometry">
            <mxPoint x="400" y="75" as="sourcePoint" />
            <mxPoint x="400" y="65" as="targetPoint" />
          </mxGeometry>
        </mxCell>
        <mxCell id="bg21X9tkaUSZAUKivtD--39" value="Producción" style="rounded=0;whiteSpace=wrap;html=1;fontSize=5;" parent="1" vertex="1">
          <mxGeometry x="245" y="80" width="40" height="25" as="geometry" />
        </mxCell>
        <mxCell id="bg21X9tkaUSZAUKivtD--40" value="Finanzas y Control" style="rounded=0;whiteSpace=wrap;html=1;fontSize=5;" parent="1" vertex="1">
          <mxGeometry x="530" y="80" width="40" height="25" as="geometry" />
        </mxCell>
        <mxCell id="bg21X9tkaUSZAUKivtD--41" value="Comercialización" style="rounded=0;whiteSpace=wrap;html=1;fontSize=5;" parent="1" vertex="1">
          <mxGeometry x="336" y="80" width="40" height="25" as="geometry" />
        </mxCell>
        <mxCell id="bg21X9tkaUSZAUKivtD--42" value="Compras" style="rounded=0;whiteSpace=wrap;html=1;fontSize=5;" parent="1" vertex="1">
          <mxGeometry x="270" y="200" width="40" height="25" as="geometry" />
        </mxCell>
        <mxCell id="bg21X9tkaUSZAUKivtD--43" value="Tesorería" style="rounded=0;whiteSpace=wrap;html=1;fontSize=5;" parent="1" vertex="1">
          <mxGeometry x="520" y="148" width="40" height="25" as="geometry" />
        </mxCell>
        <mxCell id="bg21X9tkaUSZAUKivtD--44" value="" style="endArrow=none;html=1;rounded=0;" parent="1" edge="1">
          <mxGeometry width="50" height="50" relative="1" as="geometry">
            <mxPoint x="265" y="75" as="sourcePoint" />
            <mxPoint x="550" y="75" as="targetPoint" />
            <Array as="points">
              <mxPoint x="400" y="75" />
            </Array>
          </mxGeometry>
        </mxCell>
        <mxCell id="bg21X9tkaUSZAUKivtD--45" value="" style="endArrow=none;html=1;rounded=0;exitX=0.5;exitY=0;exitDx=0;exitDy=0;" parent="1" source="bg21X9tkaUSZAUKivtD--39" edge="1">
          <mxGeometry width="50" height="50" relative="1" as="geometry">
            <mxPoint x="425" y="165" as="sourcePoint" />
            <mxPoint x="265" y="75" as="targetPoint" />
          </mxGeometry>
        </mxCell>
        <mxCell id="bg21X9tkaUSZAUKivtD--47" value="" style="endArrow=none;html=1;rounded=0;" parent="1" edge="1">
          <mxGeometry width="50" height="50" relative="1" as="geometry">
            <mxPoint x="354.83" y="80" as="sourcePoint" />
            <mxPoint x="354.83" y="75" as="targetPoint" />
          </mxGeometry>
        </mxCell>
        <mxCell id="bg21X9tkaUSZAUKivtD--48" value="" style="endArrow=none;html=1;rounded=0;exitX=0.5;exitY=0;exitDx=0;exitDy=0;" parent="1" source="bg21X9tkaUSZAUKivtD--40" edge="1">
          <mxGeometry width="50" height="50" relative="1" as="geometry">
            <mxPoint x="365" y="165" as="sourcePoint" />
            <mxPoint x="550" y="75" as="targetPoint" />
          </mxGeometry>
        </mxCell>
        <mxCell id="bg21X9tkaUSZAUKivtD--49" value="" style="endArrow=none;html=1;rounded=0;entryX=0.5;entryY=1;entryDx=0;entryDy=0;" parent="1" edge="1">
          <mxGeometry width="50" height="50" relative="1" as="geometry">
            <mxPoint x="260" y="215" as="sourcePoint" />
            <mxPoint x="260" y="105" as="targetPoint" />
          </mxGeometry>
        </mxCell>
        <mxCell id="bg21X9tkaUSZAUKivtD--51" value="" style="endArrow=none;html=1;rounded=0;entryX=0;entryY=0.75;entryDx=0;entryDy=0;" parent="1" target="bg21X9tkaUSZAUKivtD--16" edge="1">
          <mxGeometry width="50" height="50" relative="1" as="geometry">
            <mxPoint x="260" y="129" as="sourcePoint" />
            <mxPoint x="275" y="125" as="targetPoint" />
          </mxGeometry>
        </mxCell>
        <mxCell id="bg21X9tkaUSZAUKivtD--60" value="" style="endArrow=none;html=1;rounded=0;entryX=0.5;entryY=1;entryDx=0;entryDy=0;exitX=0.5;exitY=0;exitDx=0;exitDy=0;" parent="1" source="7cUdnHOEPG1iPGDejOsI-14" target="bg21X9tkaUSZAUKivtD--40" edge="1">
          <mxGeometry width="50" height="50" relative="1" as="geometry">
            <mxPoint x="525" y="115" as="sourcePoint" />
            <mxPoint x="530" y="105" as="targetPoint" />
          </mxGeometry>
        </mxCell>
        <mxCell id="bg21X9tkaUSZAUKivtD--73" value="Ventas" style="rounded=0;whiteSpace=wrap;html=1;fontSize=5;" parent="1" vertex="1">
          <mxGeometry x="355" y="170" width="40" height="25" as="geometry" />
        </mxCell>
        <mxCell id="bg21X9tkaUSZAUKivtD--74" value="Productos Cooperativos" style="rounded=0;whiteSpace=wrap;html=1;fontSize=5;" parent="1" vertex="1">
          <mxGeometry x="330" y="205" width="40" height="25" as="geometry" />
        </mxCell>
        <mxCell id="bg21X9tkaUSZAUKivtD--75" value="Productos Industriales" style="rounded=0;whiteSpace=wrap;html=1;fontSize=5;" parent="1" vertex="1">
          <mxGeometry x="380" y="205" width="40" height="25" as="geometry" />
        </mxCell>
        <mxCell id="bg21X9tkaUSZAUKivtD--76" value="" style="endArrow=none;html=1;rounded=0;entryX=0.5;entryY=1;entryDx=0;entryDy=0;exitX=0.5;exitY=0;exitDx=0;exitDy=0;" parent="1" source="bg21X9tkaUSZAUKivtD--74" target="bg21X9tkaUSZAUKivtD--73" edge="1">
          <mxGeometry width="50" height="50" relative="1" as="geometry">
            <mxPoint x="315" y="270" as="sourcePoint" />
            <mxPoint x="365" y="220" as="targetPoint" />
          </mxGeometry>
        </mxCell>
        <mxCell id="bg21X9tkaUSZAUKivtD--77" value="" style="endArrow=none;html=1;rounded=0;entryX=0.5;entryY=1;entryDx=0;entryDy=0;exitX=0.5;exitY=0;exitDx=0;exitDy=0;" parent="1" source="bg21X9tkaUSZAUKivtD--75" target="bg21X9tkaUSZAUKivtD--73" edge="1">
          <mxGeometry width="50" height="50" relative="1" as="geometry">
            <mxPoint x="315" y="270" as="sourcePoint" />
            <mxPoint x="365" y="220" as="targetPoint" />
          </mxGeometry>
        </mxCell>
        <mxCell id="bg21X9tkaUSZAUKivtD--79" value="Industrias" style="rounded=0;whiteSpace=wrap;html=1;fontSize=5;" parent="1" vertex="1">
          <mxGeometry x="430" y="80" width="40" height="25" as="geometry" />
        </mxCell>
        <mxCell id="bg21X9tkaUSZAUKivtD--81" value="Hilandería de Algodón" style="rounded=0;whiteSpace=wrap;html=1;fontSize=5;" parent="1" vertex="1">
          <mxGeometry x="405" y="115" width="40" height="25" as="geometry" />
        </mxCell>
        <mxCell id="bg21X9tkaUSZAUKivtD--85" value="Planta de Algodón Hidrófilo" style="rounded=0;whiteSpace=wrap;html=1;fontSize=5;" parent="1" vertex="1">
          <mxGeometry x="455" y="115" width="40" height="25" as="geometry" />
        </mxCell>
        <mxCell id="bg21X9tkaUSZAUKivtD--87" value="" style="endArrow=none;html=1;rounded=0;exitX=0.5;exitY=0;exitDx=0;exitDy=0;entryX=0.5;entryY=1;entryDx=0;entryDy=0;" parent="1" source="bg21X9tkaUSZAUKivtD--8" target="bg21X9tkaUSZAUKivtD--40" edge="1">
          <mxGeometry width="50" height="50" relative="1" as="geometry">
            <mxPoint x="575" y="140" as="sourcePoint" />
            <mxPoint x="530" y="130" as="targetPoint" />
          </mxGeometry>
        </mxCell>
        <mxCell id="kjkgU98nhni_tzu0HvUh-3" value="" style="endArrow=none;html=1;rounded=0;entryX=0.5;entryY=0;entryDx=0;entryDy=0;" parent="1" target="bg21X9tkaUSZAUKivtD--79" edge="1">
          <mxGeometry width="50" height="50" relative="1" as="geometry">
            <mxPoint x="450" y="75" as="sourcePoint" />
            <mxPoint x="420" y="95" as="targetPoint" />
          </mxGeometry>
        </mxCell>
        <mxCell id="kjkgU98nhni_tzu0HvUh-11" value="" style="endArrow=none;html=1;rounded=0;exitX=0;exitY=0.75;exitDx=0;exitDy=0;" parent="1" source="bg21X9tkaUSZAUKivtD--10" edge="1">
          <mxGeometry width="50" height="50" relative="1" as="geometry">
            <mxPoint x="275" y="160" as="sourcePoint" />
            <mxPoint x="260" y="159" as="targetPoint" />
          </mxGeometry>
        </mxCell>
        <mxCell id="kjkgU98nhni_tzu0HvUh-17" value="" style="endArrow=none;html=1;rounded=0;exitX=-0.01;exitY=0.64;exitDx=0;exitDy=0;exitPerimeter=0;" parent="1" source="bg21X9tkaUSZAUKivtD--9" edge="1">
          <mxGeometry width="50" height="50" relative="1" as="geometry">
            <mxPoint x="210" y="165" as="sourcePoint" />
            <mxPoint x="260" y="186" as="targetPoint" />
          </mxGeometry>
        </mxCell>
        <mxCell id="kjkgU98nhni_tzu0HvUh-18" value="" style="endArrow=none;html=1;rounded=0;exitX=0.5;exitY=0;exitDx=0;exitDy=0;entryX=0.5;entryY=1;entryDx=0;entryDy=0;" parent="1" source="bg21X9tkaUSZAUKivtD--81" target="bg21X9tkaUSZAUKivtD--79" edge="1">
          <mxGeometry width="50" height="50" relative="1" as="geometry">
            <mxPoint x="405" y="115" as="sourcePoint" />
            <mxPoint x="495" y="55" as="targetPoint" />
          </mxGeometry>
        </mxCell>
        <mxCell id="kjkgU98nhni_tzu0HvUh-19" value="" style="endArrow=none;html=1;rounded=0;exitX=0.5;exitY=0;exitDx=0;exitDy=0;" parent="1" source="bg21X9tkaUSZAUKivtD--85" edge="1">
          <mxGeometry width="50" height="50" relative="1" as="geometry">
            <mxPoint x="445" y="105" as="sourcePoint" />
            <mxPoint x="450" y="105" as="targetPoint" />
          </mxGeometry>
        </mxCell>
        <mxCell id="kjkgU98nhni_tzu0HvUh-20" value="" style="endArrow=none;dashed=1;html=1;strokeWidth=1;rounded=0;strokeColor=#FF8000;" parent="1" edge="1">
          <mxGeometry width="50" height="50" relative="1" as="geometry">
            <mxPoint x="220" y="95" as="sourcePoint" />
            <mxPoint x="245" y="95" as="targetPoint" />
          </mxGeometry>
        </mxCell>
        <mxCell id="kjkgU98nhni_tzu0HvUh-21" value="Consultoría" style="rounded=0;whiteSpace=wrap;html=1;fontSize=5;strokeColor=#FF8000;dashed=1;" parent="1" vertex="1">
          <mxGeometry x="180" y="80" width="40" height="25" as="geometry" />
        </mxCell>
        <mxCell id="7cUdnHOEPG1iPGDejOsI-1" value="Consejo de Administración" style="rounded=0;whiteSpace=wrap;html=1;fontSize=5;" parent="1" vertex="1">
          <mxGeometry x="380" y="15" width="40" height="20" as="geometry" />
        </mxCell>
        <mxCell id="7cUdnHOEPG1iPGDejOsI-2" value="" style="endArrow=none;html=1;rounded=0;sketch=1;hachureGap=4;jiggle=2;curveFitting=1;fontFamily=Architects Daughter;fontSource=https%3A%2F%2Ffonts.googleapis.com%2Fcss%3Ffamily%3DArchitects%2BDaughter;fontSize=16;entryX=0.5;entryY=1;entryDx=0;entryDy=0;exitX=0.5;exitY=0;exitDx=0;exitDy=0;" parent="1" source="bg21X9tkaUSZAUKivtD--1" target="7cUdnHOEPG1iPGDejOsI-1" edge="1">
          <mxGeometry width="50" height="50" relative="1" as="geometry">
            <mxPoint x="365" y="115" as="sourcePoint" />
            <mxPoint x="415" y="65" as="targetPoint" />
          </mxGeometry>
        </mxCell>
        <mxCell id="7cUdnHOEPG1iPGDejOsI-5" value="" style="endArrow=none;html=1;rounded=0;entryX=0.155;entryY=1;entryDx=0;entryDy=0;entryPerimeter=0;" parent="1" target="bg21X9tkaUSZAUKivtD--41" edge="1">
          <mxGeometry width="50" height="50" relative="1" as="geometry">
            <mxPoint x="342" y="180" as="sourcePoint" />
            <mxPoint x="324.5" y="110" as="targetPoint" />
          </mxGeometry>
        </mxCell>
        <mxCell id="7cUdnHOEPG1iPGDejOsI-6" value="" style="endArrow=none;html=1;rounded=0;entryX=0;entryY=0.4;entryDx=0;entryDy=0;entryPerimeter=0;" parent="1" target="bg21X9tkaUSZAUKivtD--73" edge="1">
          <mxGeometry width="50" height="50" relative="1" as="geometry">
            <mxPoint x="342" y="180" as="sourcePoint" />
            <mxPoint x="352" y="180" as="targetPoint" />
          </mxGeometry>
        </mxCell>
        <mxCell id="7cUdnHOEPG1iPGDejOsI-8" value="Publicidad" style="rounded=0;whiteSpace=wrap;html=1;fontSize=5;" parent="1" vertex="1">
          <mxGeometry x="355" y="110" width="40" height="25" as="geometry" />
        </mxCell>
        <mxCell id="7cUdnHOEPG1iPGDejOsI-9" value="Promociones" style="rounded=0;whiteSpace=wrap;html=1;fontSize=5;" parent="1" vertex="1">
          <mxGeometry x="355" y="140" width="40" height="25" as="geometry" />
        </mxCell>
        <mxCell id="7cUdnHOEPG1iPGDejOsI-10" value="" style="endArrow=none;html=1;rounded=0;entryX=0;entryY=0.4;entryDx=0;entryDy=0;entryPerimeter=0;" parent="1" edge="1">
          <mxGeometry width="50" height="50" relative="1" as="geometry">
            <mxPoint x="342" y="122.33" as="sourcePoint" />
            <mxPoint x="355" y="122.33" as="targetPoint" />
          </mxGeometry>
        </mxCell>
        <mxCell id="7cUdnHOEPG1iPGDejOsI-11" value="" style="endArrow=none;html=1;rounded=0;entryX=0;entryY=0.4;entryDx=0;entryDy=0;entryPerimeter=0;" parent="1" edge="1">
          <mxGeometry width="50" height="50" relative="1" as="geometry">
            <mxPoint x="342" y="152.33" as="sourcePoint" />
            <mxPoint x="355" y="152.33" as="targetPoint" />
          </mxGeometry>
        </mxCell>
        <mxCell id="7cUdnHOEPG1iPGDejOsI-12" value="" style="endArrow=none;html=1;rounded=0;exitX=0;exitY=0.6;exitDx=0;exitDy=0;exitPerimeter=0;" parent="1" edge="1">
          <mxGeometry width="50" height="50" relative="1" as="geometry">
            <mxPoint x="270" y="215" as="sourcePoint" />
            <mxPoint x="260" y="215" as="targetPoint" />
          </mxGeometry>
        </mxCell>
        <mxCell id="7cUdnHOEPG1iPGDejOsI-13" value="" style="endArrow=none;html=1;rounded=0;exitX=0;exitY=0.6;exitDx=0;exitDy=0;exitPerimeter=0;" parent="1" edge="1">
          <mxGeometry width="50" height="50" relative="1" as="geometry">
            <mxPoint x="520" y="163" as="sourcePoint" />
            <mxPoint x="510" y="163" as="targetPoint" />
          </mxGeometry>
        </mxCell>
        <mxCell id="7cUdnHOEPG1iPGDejOsI-14" value="Finanzas" style="rounded=0;whiteSpace=wrap;html=1;fontSize=5;" parent="1" vertex="1">
          <mxGeometry x="505" y="115" width="40" height="25" as="geometry" />
        </mxCell>
        <mxCell id="7cUdnHOEPG1iPGDejOsI-16" value="" style="endArrow=none;html=1;rounded=0;entryX=0.133;entryY=1.08;entryDx=0;entryDy=0;entryPerimeter=0;" parent="1" edge="1">
          <mxGeometry width="50" height="50" relative="1" as="geometry">
            <mxPoint x="510" y="190" as="sourcePoint" />
            <mxPoint x="510.32000000000005" y="140" as="targetPoint" />
          </mxGeometry>
        </mxCell>
        <mxCell id="7cUdnHOEPG1iPGDejOsI-17" value="Contabilidad General" style="rounded=0;whiteSpace=wrap;html=1;fontSize=5;" parent="1" vertex="1">
          <mxGeometry x="580" y="148" width="40" height="25" as="geometry" />
        </mxCell>
        <mxCell id="7cUdnHOEPG1iPGDejOsI-18" value="Contabilidad de Costos" style="rounded=0;whiteSpace=wrap;html=1;fontSize=5;" parent="1" vertex="1">
          <mxGeometry x="580" y="178" width="40" height="25" as="geometry" />
        </mxCell>
        <mxCell id="7cUdnHOEPG1iPGDejOsI-19" value="" style="endArrow=none;html=1;rounded=0;exitX=0;exitY=0.6;exitDx=0;exitDy=0;exitPerimeter=0;" parent="1" edge="1">
          <mxGeometry width="50" height="50" relative="1" as="geometry">
            <mxPoint x="580" y="163" as="sourcePoint" />
            <mxPoint x="570" y="163" as="targetPoint" />
          </mxGeometry>
        </mxCell>
        <mxCell id="7cUdnHOEPG1iPGDejOsI-20" value="" style="endArrow=none;html=1;rounded=0;exitX=0;exitY=0.6;exitDx=0;exitDy=0;exitPerimeter=0;" parent="1" edge="1">
          <mxGeometry width="50" height="50" relative="1" as="geometry">
            <mxPoint x="580" y="193" as="sourcePoint" />
            <mxPoint x="570" y="193" as="targetPoint" />
          </mxGeometry>
        </mxCell>
        <mxCell id="7cUdnHOEPG1iPGDejOsI-21" value="" style="endArrow=none;html=1;rounded=0;entryX=0.133;entryY=1.08;entryDx=0;entryDy=0;entryPerimeter=0;" parent="1" edge="1">
          <mxGeometry width="50" height="50" relative="1" as="geometry">
            <mxPoint x="570" y="193" as="sourcePoint" />
            <mxPoint x="570" y="140" as="targetPoint" />
          </mxGeometry>
        </mxCell>
        <mxCell id="7cUdnHOEPG1iPGDejOsI-22" value="Créditos y Cobranzas" style="rounded=0;whiteSpace=wrap;html=1;fontSize=5;" parent="1" vertex="1">
          <mxGeometry x="520" y="178" width="40" height="25" as="geometry" />
        </mxCell>
        <mxCell id="7cUdnHOEPG1iPGDejOsI-23" value="" style="endArrow=none;html=1;rounded=0;exitX=0;exitY=0.6;exitDx=0;exitDy=0;exitPerimeter=0;" parent="1" edge="1">
          <mxGeometry width="50" height="50" relative="1" as="geometry">
            <mxPoint x="520" y="190.32999999999998" as="sourcePoint" />
            <mxPoint x="510" y="190.32999999999998" as="targetPoint" />
          </mxGeometry>
        </mxCell>
      </root>
    </mxGraphModel>
  </diagram>
</mxfile>
